<?xml version="1.0" encoding="UTF-8" standalone="no"?>
<!-- Created with Inkscape (http://www.inkscape.org/) -->

<svg
   xmlns:dc="http://purl.org/dc/elements/1.1/"
   xmlns:cc="http://creativecommons.org/ns#"
   xmlns:rdf="http://www.w3.org/1999/02/22-rdf-syntax-ns#"
   xmlns:svg="http://www.w3.org/2000/svg"
   xmlns="http://www.w3.org/2000/svg"
   xmlns:sodipodi="http://sodipodi.sourceforge.net/DTD/sodipodi-0.dtd"
   xmlns:inkscape="http://www.inkscape.org/namespaces/inkscape"
   version="1.1"
   width="12"
   height="12"
   id="svg3122"
   inkscape:version="0.48.2 r9819"
   sodipodi:docname="dlr-12.svg">
  <sodipodi:namedview
     pagecolor="#ffffff"
     bordercolor="#666666"
     borderopacity="1"
     objecttolerance="10"
     gridtolerance="10"
     guidetolerance="10"
     inkscape:pageopacity="0"
     inkscape:pageshadow="2"
     inkscape:window-width="1280"
     inkscape:window-height="752"
     id="namedview12"
     showgrid="true"
     inkscape:snap-bbox="true"
     fit-margin-top="0"
     fit-margin-left="0"
     fit-margin-right="0"
     fit-margin-bottom="0"
     inkscape:zoom="21.458333"
     inkscape:cx="9.2970873"
     inkscape:cy="4.5436802"
     inkscape:window-x="0"
     inkscape:window-y="0"
     inkscape:window-maximized="1"
     inkscape:current-layer="svg3122">
    <inkscape:grid
       type="xygrid"
       id="grid2989"
       empspacing="5"
       visible="true"
       enabled="true"
       snapvisiblegridlinesonly="true"
       originx="0px"
       originy="-8.6914063e-06px" />
  </sodipodi:namedview>
  <defs
     id="defs3124" />
  <metadata
     id="metadata3127">
    <rdf:RDF>
      <cc:Work
         rdf:about="">
        <dc:format>image/svg+xml</dc:format>
        <dc:type
           rdf:resource="http://purl.org/dc/dcmitype/StillImage" />
        <dc:title />
      </cc:Work>
    </rdf:RDF>
  </metadata>
  <path
     style="color:#000000;fill:#fefef1;fill-opacity:1;fill-rule:nonzero;stroke:none;stroke-width:1.33333324999999991;marker:none;visibility:visible;display:inline;overflow:visible;enable-background:accumulate"
     d="M 5.65625 1 A 5.00001 5.00001 0 0 0 1.4375 4 L 1 4 C 0.446 4 0 4.446 0 5 L 0 7 C 0 7.554 0.446 8 1 8 L 1.40625 8 A 5.00001 5.00001 0 0 0 10.5625 8 L 11 8 C 11.554 8 12 7.554 12 7 L 12 5 C 12 4.446 11.554 4 11 4 L 10.59375 4 A 5.00001 5.00001 0 0 0 5.65625 1 z "
     id="rect4181" />
  <rect
     style="color:#000000;fill:#ffffff;fill-opacity:0;fill-rule:nonzero;stroke:none;stroke-width:0.99999994;marker:none;visibility:visible;display:inline;overflow:visible;enable-background:accumulate"
     id="rect4185"
     y="1.3085937e-06"
     x="0"
     height="12"
     width="12" />
  <path
     style="color:#000000;fill:#000363;fill-opacity:1;fill-rule:nonzero;stroke:none;stroke-width:0.74999994000000003;marker:none;visibility:visible;display:inline;overflow:visible;enable-background:accumulate"
     d="M 5.71875 2 A 4 4 0 0 0 2.125 5 L 1.25 5 C 1.1115 5 1 5.1115 1 5.25 L 1 6.75 C 1 6.8885 1.1115 7 1.25 7 L 2.15625 7 A 4 4 0 0 0 9.875 7 L 10.75 7 C 10.8885 7 11 6.8885 11 6.75 L 11 5.25 C 11 5.1115 10.8885 5 10.75 5 L 9.875 5 A 4 4 0 0 0 5.71875 2 z M 5.8125 3.5 A 2.500035 2.500035 0 0 1 8.28125 5 L 3.71875 5 A 2.500035 2.500035 0 0 1 5.8125 3.5 z M 3.71875 7 L 8.28125 7 A 2.500035 2.500035 0 0 1 3.71875 7 z "
     id="path4187" />
</svg>
