<?xml version="1.0" encoding="UTF-8" standalone="no"?>
<!-- Created with Inkscape (http://www.inkscape.org/) -->

<svg
   xmlns:dc="http://purl.org/dc/elements/1.1/"
   xmlns:cc="http://creativecommons.org/ns#"
   xmlns:rdf="http://www.w3.org/1999/02/22-rdf-syntax-ns#"
   xmlns:svg="http://www.w3.org/2000/svg"
   xmlns="http://www.w3.org/2000/svg"
   xmlns:sodipodi="http://sodipodi.sourceforge.net/DTD/sodipodi-0.dtd"
   xmlns:inkscape="http://www.inkscape.org/namespaces/inkscape"
   version="1.1"
   width="36"
   height="18"
   id="svg3122"
   inkscape:version="0.48.2 r9819"
   sodipodi:docname="dlr.national-rail-18.svg">
  <sodipodi:namedview
     pagecolor="#ffffff"
     bordercolor="#666666"
     borderopacity="1"
     objecttolerance="10"
     gridtolerance="10"
     guidetolerance="10"
     inkscape:pageopacity="0"
     inkscape:pageshadow="2"
     inkscape:window-width="1284"
     inkscape:window-height="770"
     id="namedview20421"
     showgrid="false"
     inkscape:zoom="19.555556"
     inkscape:cx="14.113636"
     inkscape:cy="4.9090909"
     inkscape:window-x="0"
     inkscape:window-y="0"
     inkscape:window-maximized="0"
     inkscape:current-layer="svg3122" />
  <defs
     id="defs3124" />
  <metadata
     id="metadata3127">
    <rdf:RDF>
      <cc:Work
         rdf:about="">
        <dc:format>image/svg+xml</dc:format>
        <dc:type
           rdf:resource="http://purl.org/dc/dcmitype/StillImage" />
        <dc:title />
      </cc:Work>
    </rdf:RDF>
  </metadata>
  <path
     style="color:#000000;fill:#fefef1;fill-opacity:1;fill-rule:nonzero;stroke:none;stroke-width:0.99999994000000003;marker:none;visibility:visible;display:inline;overflow:visible;enable-background:accumulate"
     d="M 9.21875 1 A 8 8 0 0 0 1.5625 6.03125 C 0.6642031 6.2281959 0 7.0408875 0 8 L 0 10 C 0 10.9695 0.68074219 11.782867 1.59375 11.96875 A 8 8 0 0 0 16.4375 11.96875 C 17.335797 11.771804 18 10.959112 18 10 L 18 8 C 18 7.0305 17.319258 6.2171328 16.40625 6.03125 A 8 8 0 0 0 9.21875 1 z "
     id="path4169" />
  <path
     style="color:#000000;fill:#000363;fill-opacity:1;fill-rule:nonzero;stroke:none;stroke-width:0.99999994000000003;marker:none;visibility:visible;display:inline;overflow:visible;enable-background:accumulate"
     d="M 9 3 C 6.0243798 3 3.5667275 5.1585941 3.09375 8 L 2.5 8 C 2.223 8 2 8.223 2 8.5 L 2 9.5 C 2 9.777 2.223 10 2.5 10 L 3.09375 10 C 3.5667275 12.841406 6.0243798 15 9 15 C 11.97562 15 14.433272 12.841406 14.90625 10 L 15.5 10 C 15.777 10 16 9.777 16 9.5 L 16 8.5 C 16 8.223 15.777 8 15.5 8 L 14.90625 8 C 14.433272 5.1585941 11.97562 3 9 3 z M 9 5.5 C 10.587819 5.5 11.915501 6.5510094 12.34375 8 L 5.65625 8 C 6.0844989 6.5510094 7.412181 5.5 9 5.5 z M 5.65625 10 L 12.34375 10 C 11.915501 11.448991 10.587819 12.5 9 12.5 C 7.412181 12.5 6.0844989 11.448991 5.65625 10 z "
     id="path4173" />
  <rect
     style="color:#000000;fill:#ffffff;fill-opacity:0;fill-rule:nonzero;stroke:none;stroke-width:0.99999994;marker:none;visibility:visible;display:inline;overflow:visible;enable-background:accumulate"
     id="rect4175"
     y="-1.7382812e-05"
     x="0"
     height="18"
     width="18" />
  <rect
     style="color:#000000;fill:#fefef1;fill-opacity:1;fill-rule:nonzero;stroke:none;stroke-width:1.33333324999999991;marker:none;visibility:visible;display:inline;overflow:visible;enable-background:accumulate"
     id="rect3806-6"
     y="1.9999826"
     x="18"
     ry="2"
     rx="2"
     height="13.999993"
     width="18" />
  <rect
     style="color:#000000;fill:#ffffff;fill-opacity:0;fill-rule:nonzero;stroke:none;stroke-width:0.99999994;marker:none;visibility:visible;display:inline;overflow:visible;enable-background:accumulate"
     id="rect3787"
     y="-1.7382812e-05"
     x="18"
     height="18"
     width="18" />
  <path
     style="color:#000000;fill:#ff5f51;fill-opacity:1;fill-rule:nonzero;stroke:none;stroke-width:1.33333324999999991;marker:none;visibility:visible;display:inline;overflow:visible;enable-background:accumulate"
     d="M 21 4 C 20.446 4 20 4.446 20 5 L 20 6.75 L 27.03125 6.75 L 23.5 4 L 21 4 z M 26 4 L 29.53125 6.75 L 34 6.75 L 34 5 C 34 4.446 33.554 4 33 4 L 26 4 z M 20 8 L 20 10 L 24.25 10 L 27.25 8 L 20 8 z M 29.75 8 L 26.75 10 L 34 10 L 34 8 L 29.75 8 z M 20 11.25 L 20 13 C 20 13.554 20.446 14 21 14 L 28 14 L 24.46875 11.25 L 20 11.25 z M 26.96875 11.25 L 30.5 14 L 33 14 C 33.554 14 34 13.554 34 13 L 34 11.25 L 26.96875 11.25 z "
     id="rect3025-0" />
</svg>
