<?xml version="1.0" encoding="UTF-8" standalone="no"?>
<!-- Created with Inkscape (http://www.inkscape.org/) -->

<svg
   xmlns:dc="http://purl.org/dc/elements/1.1/"
   xmlns:cc="http://creativecommons.org/ns#"
   xmlns:rdf="http://www.w3.org/1999/02/22-rdf-syntax-ns#"
   xmlns:svg="http://www.w3.org/2000/svg"
   xmlns="http://www.w3.org/2000/svg"
   xmlns:sodipodi="http://sodipodi.sourceforge.net/DTD/sodipodi-0.dtd"
   xmlns:inkscape="http://www.inkscape.org/namespaces/inkscape"
   version="1.1"
   width="48"
   height="12"
   id="svg3122"
   inkscape:version="0.48.2 r9819"
   sodipodi:docname="dlr.london-overground.london-underground.national-rail-12.svg">
  <sodipodi:namedview
     pagecolor="#ffffff"
     bordercolor="#666666"
     borderopacity="1"
     objecttolerance="10"
     gridtolerance="10"
     guidetolerance="10"
     inkscape:pageopacity="0"
     inkscape:pageshadow="2"
     inkscape:window-width="1280"
     inkscape:window-height="752"
     id="namedview33"
     showgrid="false"
     inkscape:snap-bbox="true"
     inkscape:zoom="15.999999"
     inkscape:cx="24.37738"
     inkscape:cy="3.6854094"
     inkscape:window-x="0"
     inkscape:window-y="0"
     inkscape:window-maximized="1"
     inkscape:current-layer="svg3122"
     showguides="true"
     inkscape:guide-bbox="true">
    <inkscape:grid
       type="xygrid"
       id="grid3010"
       empspacing="5"
       visible="true"
       enabled="true"
       snapvisiblegridlinesonly="true" />
  </sodipodi:namedview>
  <defs
     id="defs3124" />
  <metadata
     id="metadata3127">
    <rdf:RDF>
      <cc:Work
         rdf:about="">
        <dc:format>image/svg+xml</dc:format>
        <dc:type
           rdf:resource="http://purl.org/dc/dcmitype/StillImage" />
        <dc:title />
      </cc:Work>
    </rdf:RDF>
  </metadata>
  <rect
     style="color:#000000;fill:#ffffff;fill-opacity:1;fill-rule:nonzero;stroke:none;stroke-width:1.33333325;marker:none;visibility:visible;display:inline;overflow:visible;enable-background:accumulate"
     id="rect4181"
     y="3.9999974"
     x="0"
     ry="0.99999869"
     rx="0.99999869"
     height="3.9999919"
     width="11.999984" />
  <rect
     style="color:#000000;fill:#ffffff;fill-opacity:0;fill-rule:nonzero;stroke:none;stroke-width:0.99999994;marker:none;visibility:visible;display:inline;overflow:visible;enable-background:accumulate"
     id="rect4185"
     y="2.5895533e-06"
     x="0"
     height="11.999984"
     width="11.999984" />
  <path
     style="color:#000000;fill:#fefef1;fill-opacity:1;fill-rule:nonzero;stroke:none;stroke-width:1.33333324999999991;marker:none;visibility:visible;display:inline;overflow:visible;enable-background:accumulate"
     d="M 17.65625 1 A 5.0000032 5.0000032 0 0 0 13.4375 4 L 13 4 C 12.446001 4 12 4.4460007 12 5 L 12 7 C 12 7.5539993 12.446001 8 13 8 L 13.40625 8 A 5.0000032 5.0000032 0 0 0 22.5625 8 L 23 8 C 23.553999 8 24 7.5539993 24 7 L 24 5 C 24 4.4460007 23.553999 4 23 4 L 22.59375 4 A 5.0000032 5.0000032 0 0 0 17.65625 1 z "
     id="rect4074" />
  <rect
     style="color:#000000;fill:#ffff00;fill-opacity:0;fill-rule:nonzero;stroke:none;stroke-width:0.99999994000000003;marker:none;visibility:visible;display:inline;overflow:visible;enable-background:accumulate"
     id="rect4078"
     y="2.5895533e-06"
     x="11.999984"
     height="11.999984"
     width="11.999984" />
  <rect
     style="color:#000000;fill:#fefef1;fill-opacity:1;fill-rule:nonzero;stroke:none;stroke-width:1.33333324999999991;marker:none;visibility:visible;display:inline;overflow:visible;enable-background:accumulate"
     id="rect3806"
     y="0.9999826"
     x="36"
     ry="2"
     rx="2"
     height="9.9999971"
     width="12" />
  <rect
     style="color:#000000;fill:#ffffff;fill-opacity:0;fill-rule:nonzero;stroke:none;stroke-width:0.99999994;marker:none;visibility:visible;display:inline;overflow:visible;enable-background:accumulate"
     id="rect3765"
     y="-1.7382812e-05"
     x="36"
     height="12"
     width="12" />
  <path
     style="color:#000000;fill:#ff5f51;fill-opacity:1;fill-rule:nonzero;stroke:none;stroke-width:1.33333324999999991;marker:none;visibility:visible;display:inline;overflow:visible;enable-background:accumulate"
     d="M 38 2 C 37.446 2 37 2.446 37 3 L 37 4 L 42.65625 4 L 39.34375 2 L 38 2 z M 41.34375 2 L 44.65625 4 L 47 4 L 47 3 C 47 2.446 46.554 2 46 2 L 41.34375 2 z M 37 5 L 37 7 L 39.34375 7 L 42.65625 5 L 37 5 z M 44.65625 5 L 41.34375 7 L 47 7 L 47 5 L 44.65625 5 z M 37 8 L 37 9 C 37 9.554 37.446 10 38 10 L 42.65625 10 L 39.34375 8 L 37 8 z M 41.34375 8 L 44.65625 10 L 46 10 C 46.554 10 47 9.554 47 9 L 47 8 L 41.34375 8 z "
     id="rect3025" />
  <path
     id="path3109"
     d="m 17.71875,2 a 3.999995,3.999995 0 0 0 -3.5625,3 L 13.25,5 C 13.1115,5 13,5.1115 13,5.25 l 0,1.5 C 13,6.8885 13.1115,7 13.25,7 l 0.875,0 a 3.999995,3.999995 0 0 0 7.71875,0 L 22.75,7 C 22.8885,7 23,6.8885 23,6.75 l 0,-1.5 C 23,5.1115 22.8885,5 22.75,5 L 21.875,5 A 3.999995,3.999995 0 0 0 17.71875,2 z M 17.8125,3.5 A 2.5000317,2.5000317 0 0 1 20.28125,5 l -4.5625,0 A 2.5000317,2.5000317 0 0 1 17.8125,3.5 z m -2.09375,3.5 4.5625,0 a 2.5000317,2.5000317 0 0 1 -4.5625,0 z"
     style="color:#000000;fill:#000363;fill-opacity:1;fill-rule:nonzero;stroke:none;stroke-width:0.74999994000000003;marker:none;visibility:visible;display:inline;overflow:visible;enable-background:accumulate"
     inkscape:connector-curvature="0" />
  <path
     id="path3114"
     d="M 5.65625,1 A 5.0000032,5.0000032 0 0 0 1.4375,4 L 1,4 C 0.446001,4 0,4.4460007 0,5 L 0,7 C 0,7.5539993 0.446001,8 1,8 L 1.40625,8 A 5.0000032,5.0000032 0 0 0 10.5625,8 L 11,8 c 0.553999,0 1,-0.4460007 1,-1 L 12,5 C 12,4.4460007 11.553999,4 11,4 L 10.59375,4 A 5.0000032,5.0000032 0 0 0 5.65625,1 z"
     style="color:#000000;fill:#fefef1;fill-opacity:1;fill-rule:nonzero;stroke:none;stroke-width:1.33333324999999991;marker:none;visibility:visible;display:inline;overflow:visible;enable-background:accumulate"
     inkscape:connector-curvature="0" />
  <rect
     width="11.999984"
     height="11.999984"
     x="-1.6212463e-05"
     y="2.5895533e-06"
     id="rect3116"
     style="color:#000000;fill:#ffff00;fill-opacity:0;fill-rule:nonzero;stroke:none;stroke-width:0.99999994;marker:none;visibility:visible;display:inline;overflow:visible;enable-background:accumulate" />
  <path
     inkscape:connector-curvature="0"
     style="color:#000000;fill:#000363;fill-opacity:1;fill-rule:nonzero;stroke:none;stroke-width:0.74999994000000003;marker:none;visibility:visible;display:inline;overflow:visible;enable-background:accumulate"
     d="M 5.71875,2 A 3.999995,3.999995 0 0 0 2.15625,5 L 1.25,5 C 1.1115,5 1,5.1115 1,5.25 l 0,1.5 C 1,6.8885 1.1115,7 1.25,7 L 2.125,7 A 3.999995,3.999995 0 0 0 9.84375,7 L 10.75,7 C 10.8885,7 11,6.8885 11,6.75 l 0,-1.5 C 11,5.1115 10.8885,5 10.75,5 L 9.875,5 A 3.999995,3.999995 0 0 0 5.71875,2 z M 5.8125,3.5 A 2.5000317,2.5000317 0 0 1 8.28125,5 L 3.71875,5 A 2.5000317,2.5000317 0 0 1 5.8125,3.5 z M 3.71875,7 8.28125,7 a 2.5000317,2.5000317 0 0 1 -4.5625,0 z"
     id="path3118" />
  <path
     inkscape:connector-curvature="0"
     style="color:#000000;fill:#fefef1;fill-opacity:1;fill-rule:nonzero;stroke:none;stroke-width:1.33333324999999991;marker:none;visibility:visible;display:inline;overflow:visible;enable-background:accumulate"
     d="M 29.65625,1 A 5.0000032,5.0000032 0 0 0 25.4375,4 L 25,4 c -0.553999,0 -1,0.4460007 -1,1 l 0,2 c 0,0.5539993 0.446001,1 1,1 l 0.40625,0 A 5.0000032,5.0000032 0 0 0 34.5625,8 L 35,8 c 0.553999,0 1,-0.4460007 1,-1 L 36,5 C 36,4.4460007 35.553999,4 35,4 l -0.40625,0 a 5.0000032,5.0000032 0 0 0 -4.9375,-3 z"
     id="path3120" />
  <rect
     style="color:#000000;fill:#ffff00;fill-opacity:0;fill-rule:nonzero;stroke:none;stroke-width:0.99999994;marker:none;visibility:visible;display:inline;overflow:visible;enable-background:accumulate"
     id="rect3122"
     y="2.5895533e-06"
     x="23.999985"
     height="11.999984"
     width="11.999984" />
  <path
     id="path3124"
     d="m 29.71875,2 a 3.999995,3.999995 0 0 0 -3.5625,3 L 25.25,5 C 25.1115,5 25,5.1115 25,5.25 l 0,1.5 C 25,6.8885 25.1115,7 25.25,7 l 0.875,0 a 3.999995,3.999995 0 0 0 7.71875,0 L 34.75,7 C 34.8885,7 35,6.8885 35,6.75 l 0,-1.5 C 35,5.1115 34.8885,5 34.75,5 L 33.875,5 A 3.999995,3.999995 0 0 0 29.71875,2 z M 29.8125,3.5 A 2.5000317,2.5000317 0 0 1 32.28125,5 l -4.5625,0 A 2.5000317,2.5000317 0 0 1 29.8125,3.5 z m -2.09375,3.5 4.5625,0 a 2.5000317,2.5000317 0 0 1 -4.5625,0 z"
     style="color:#000000;fill:#000363;fill-opacity:1;fill-rule:nonzero;stroke:none;stroke-width:0.74999994000000003;marker:none;visibility:visible;display:inline;overflow:visible;enable-background:accumulate"
     inkscape:connector-curvature="0" />
</svg>
