<?xml version="1.0" encoding="UTF-8" standalone="no"?>
<!-- Created with Inkscape (http://www.inkscape.org/) -->

<svg
   xmlns:dc="http://purl.org/dc/elements/1.1/"
   xmlns:cc="http://creativecommons.org/ns#"
   xmlns:rdf="http://www.w3.org/1999/02/22-rdf-syntax-ns#"
   xmlns:svg="http://www.w3.org/2000/svg"
   xmlns="http://www.w3.org/2000/svg"
   xmlns:sodipodi="http://sodipodi.sourceforge.net/DTD/sodipodi-0.dtd"
   xmlns:inkscape="http://www.inkscape.org/namespaces/inkscape"
   version="1.1"
   width="72"
   height="18"
   id="svg3122"
   inkscape:version="0.48.2 r9819"
   sodipodi:docname="dlr.london-overground.london-underground.national-rail-18.svg">
  <sodipodi:namedview
     pagecolor="#ffffff"
     bordercolor="#666666"
     borderopacity="1"
     objecttolerance="10"
     gridtolerance="10"
     guidetolerance="10"
     inkscape:pageopacity="0"
     inkscape:pageshadow="2"
     inkscape:window-width="1280"
     inkscape:window-height="752"
     id="namedview4039"
     showgrid="false"
     inkscape:zoom="1"
     inkscape:cx="6.6998967"
     inkscape:cy="0.32187131"
     inkscape:window-x="0"
     inkscape:window-y="0"
     inkscape:window-maximized="1"
     inkscape:current-layer="svg3122">
    <inkscape:grid
       type="xygrid"
       id="grid4047" />
  </sodipodi:namedview>
  <defs
     id="defs3124" />
  <metadata
     id="metadata3127">
    <rdf:RDF>
      <cc:Work
         rdf:about="">
        <dc:format>image/svg+xml</dc:format>
        <dc:type
           rdf:resource="http://purl.org/dc/dcmitype/StillImage" />
        <dc:title />
      </cc:Work>
    </rdf:RDF>
  </metadata>
  <path
     style="color:#000000;fill:#fefef1;fill-opacity:1;fill-rule:nonzero;stroke:none;stroke-width:0.99999994000000003;marker:none;visibility:visible;display:inline;overflow:visible;enable-background:accumulate"
     d="M 45.21875 1 A 8 8 0 0 0 37.5625 6.03125 C 36.664203 6.2281959 36 7.0408875 36 8 L 36 10 C 36 10.9695 36.680742 11.782867 37.59375 11.96875 A 8 8 0 0 0 52.4375 11.96875 C 53.335797 11.771804 54 10.959112 54 10 L 54 8 C 54 7.0305 53.319258 6.2171328 52.40625 6.03125 A 8 8 0 0 0 45.21875 1 z "
     id="path3833" />
  <path
     style="color:#000000;fill:#000363;fill-opacity:1;fill-rule:nonzero;stroke:none;stroke-width:0.99999994000000003;marker:none;visibility:visible;display:inline;overflow:visible;enable-background:accumulate"
     d="M 45 3 C 42.02438 3 39.566728 5.1585941 39.09375 8 L 38.5 8 C 38.223 8 38 8.223 38 8.5 L 38 9.5 C 38 9.777 38.223 10 38.5 10 L 39.09375 10 C 39.566728 12.841406 42.02438 15 45 15 C 47.97562 15 50.433272 12.841406 50.90625 10 L 51.5 10 C 51.777 10 52 9.777 52 9.5 L 52 8.5 C 52 8.223 51.777 8 51.5 8 L 50.90625 8 C 50.433272 5.1585941 47.97562 3 45 3 z M 45 5.5 C 46.587819 5.5 47.915501 6.5510094 48.34375 8 L 41.65625 8 C 42.084499 6.5510094 43.412181 5.5 45 5.5 z M 41.65625 10 L 48.34375 10 C 47.915501 11.448991 46.587819 12.5 45 12.5 C 43.412181 12.5 42.084499 11.448991 41.65625 10 z "
     id="path3808" />
  <rect
     style="color:#000000;fill:#ffffff;fill-opacity:0;fill-rule:nonzero;stroke:none;stroke-width:0.99999994;marker:none;visibility:visible;display:inline;overflow:visible;enable-background:accumulate"
     id="rect3810"
     y="-1.7382812e-05"
     x="36"
     height="18"
     width="18" />
  <rect
     style="color:#000000;fill:#fefef1;fill-opacity:1;fill-rule:nonzero;stroke:none;stroke-width:1.33333324999999991;marker:none;visibility:visible;display:inline;overflow:visible;enable-background:accumulate"
     id="rect3806-6"
     y="1.9999826"
     x="54"
     ry="2"
     rx="2"
     height="13.999993"
     width="18" />
  <rect
     style="color:#000000;fill:#ffffff;fill-opacity:0;fill-rule:nonzero;stroke:none;stroke-width:0.99999994;marker:none;visibility:visible;display:inline;overflow:visible;enable-background:accumulate"
     id="rect3787"
     y="-1.7382812e-05"
     x="54"
     height="18"
     width="18" />
  <path
     style="color:#000000;fill:#ff5f51;fill-opacity:1;fill-rule:nonzero;stroke:none;stroke-width:1.33333324999999991;marker:none;visibility:visible;display:inline;overflow:visible;enable-background:accumulate"
     d="M 57 4 C 56.446 4 56 4.446 56 5 L 56 6.75 L 63.03125 6.75 L 59.5 4 L 57 4 z M 62 4 L 65.53125 6.75 L 70 6.75 L 70 5 C 70 4.446 69.554 4 69 4 L 62 4 z M 56 8 L 56 10 L 60.25 10 L 63.25 8 L 56 8 z M 65.75 8 L 62.75 10 L 70 10 L 70 8 L 65.75 8 z M 56 11.25 L 56 13 C 56 13.554 56.446 14 57 14 L 64 14 L 60.46875 11.25 L 56 11.25 z M 62.96875 11.25 L 66.5 14 L 69 14 C 69.554 14 70 13.554 70 13 L 70 11.25 L 62.96875 11.25 z "
     id="rect3025-0" />
  <path
     id="path4573"
     d="M 27.21875,1 A 8,8 0 0 0 19.5625,6.03125 C 18.664203,6.2281959 18,7.0408875 18,8 l 0,2 c 0,0.9695 0.680742,1.782867 1.59375,1.96875 a 8,8 0 0 0 14.84375,0 C 35.335797,11.771804 36,10.959112 36,10 L 36,8 C 36,7.0305 35.319258,6.2171328 34.40625,6.03125 A 8,8 0 0 0 27.21875,1 z"
     style="color:#000000;fill:#fefef1;fill-opacity:1;fill-rule:nonzero;stroke:none;stroke-width:0.99999994;marker:none;visibility:visible;display:inline;overflow:visible;enable-background:accumulate"
     inkscape:connector-curvature="0" />
  <path
     id="path4575"
     d="M 27,3 C 24.02438,3 21.566728,5.1585941 21.09375,8 L 20.5,8 C 20.223,8 20,8.223 20,8.5 l 0,1 c 0,0.277 0.223,0.5 0.5,0.5 l 0.59375,0 c 0.472978,2.841406 2.93063,5 5.90625,5 2.97562,0 5.433272,-2.158594 5.90625,-5 L 33.5,10 C 33.777,10 34,9.777 34,9.5 l 0,-1 C 34,8.223 33.777,8 33.5,8 L 32.90625,8 C 32.433272,5.1585941 29.97562,3 27,3 z m 0,2.5 c 1.587819,0 2.915501,1.0510094 3.34375,2.5 l -6.6875,0 C 24.084499,6.5510094 25.412181,5.5 27,5.5 z m -3.34375,4.5 6.6875,0 C 29.915501,11.448991 28.587819,12.5 27,12.5 25.412181,12.5 24.084499,11.448991 23.65625,10 z"
     style="color:#000000;fill:#000363;fill-opacity:1;fill-rule:nonzero;stroke:none;stroke-width:0.99999994;marker:none;visibility:visible;display:inline;overflow:visible;enable-background:accumulate"
     inkscape:connector-curvature="0" />
  <path
     inkscape:connector-curvature="0"
     style="color:#000000;fill:#fefef1;fill-opacity:1;fill-rule:nonzero;stroke:none;stroke-width:0.99999994;marker:none;visibility:visible;display:inline;overflow:visible;enable-background:accumulate"
     d="M 9.21875,1 A 8,8 0 0 0 1.5625,6.03125 C 0.664203,6.2281959 0,7.0408875 0,8 l 0,2 c 0,0.9695 0.680742,1.782867 1.59375,1.96875 a 8,8 0 0 0 14.84375,0 C 17.335797,11.771804 18,10.959112 18,10 L 18,8 C 18,7.0305 17.319258,6.2171328 16.40625,6.03125 A 8,8 0 0 0 9.21875,1 z"
     id="path4577" />
  <path
     inkscape:connector-curvature="0"
     style="color:#000000;fill:#000363;fill-opacity:1;fill-rule:nonzero;stroke:none;stroke-width:0.99999994;marker:none;visibility:visible;display:inline;overflow:visible;enable-background:accumulate"
     d="M 9,3 C 6.02438,3 3.566728,5.1585941 3.09375,8 L 2.5,8 C 2.223,8 2,8.223 2,8.5 l 0,1 C 2,9.777 2.223,10 2.5,10 l 0.59375,0 C 3.566728,12.841406 6.02438,15 9,15 c 2.97562,0 5.433272,-2.158594 5.90625,-5 L 15.5,10 C 15.777,10 16,9.777 16,9.5 l 0,-1 C 16,8.223 15.777,8 15.5,8 L 14.90625,8 C 14.433272,5.1585941 11.97562,3 9,3 z m 0,2.5 c 1.587819,0 2.915501,1.0510094 3.34375,2.5 L 5.65625,8 C 6.084499,6.5510094 7.412181,5.5 9,5.5 z m -3.34375,4.5 6.6875,0 C 11.915501,11.448991 10.587819,12.5 9,12.5 7.412181,12.5 6.084499,11.448991 5.65625,10 z"
     id="path4579" />
</svg>
