<?xml version="1.0" encoding="UTF-8" standalone="no"?>
<!-- Created with Inkscape (http://www.inkscape.org/) -->

<svg
   xmlns:dc="http://purl.org/dc/elements/1.1/"
   xmlns:cc="http://creativecommons.org/ns#"
   xmlns:rdf="http://www.w3.org/1999/02/22-rdf-syntax-ns#"
   xmlns:svg="http://www.w3.org/2000/svg"
   xmlns="http://www.w3.org/2000/svg"
   xmlns:sodipodi="http://sodipodi.sourceforge.net/DTD/sodipodi-0.dtd"
   xmlns:inkscape="http://www.inkscape.org/namespaces/inkscape"
   version="1.1"
   width="12"
   height="12"
   id="svg3122"
   inkscape:version="0.48.2 r9819"
   sodipodi:docname="light-12.svg">
  <sodipodi:namedview
     pagecolor="#ffffff"
     bordercolor="#4499ee"
     borderopacity="1"
     objecttolerance="10"
     gridtolerance="10"
     guidetolerance="10"
     inkscape:pageopacity="0"
     inkscape:pageshadow="2"
     inkscape:window-width="1280"
     inkscape:window-height="752"
     id="namedview6917"
     showgrid="true"
     inkscape:snap-bbox="true"
     inkscape:zoom="22.627417"
     inkscape:cx="10.54871"
     inkscape:cy="6.0405171"
     inkscape:window-x="0"
     inkscape:window-y="0"
     inkscape:window-maximized="1"
     inkscape:current-layer="svg3122">
    <inkscape:grid
       type="xygrid"
       id="grid9183"
       empspacing="5"
       visible="true"
       enabled="true"
       snapvisiblegridlinesonly="true" />
  </sodipodi:namedview>
  <defs
     id="defs3124" />
  <metadata
     id="metadata3127">
    <rdf:RDF>
      <cc:Work
         rdf:about="">
        <dc:format>image/svg+xml</dc:format>
        <dc:type
           rdf:resource="http://purl.org/dc/dcmitype/StillImage" />
        <dc:title />
      </cc:Work>
    </rdf:RDF>
  </metadata>
  <path
     style="font-size:medium;font-style:normal;font-variant:normal;font-weight:normal;font-stretch:normal;text-indent:0;text-align:start;text-decoration:none;line-height:normal;letter-spacing:normal;word-spacing:normal;text-transform:none;direction:ltr;block-progression:tb;writing-mode:lr-tb;text-anchor:start;baseline-shift:baseline;color:#000000;fill:#fefef1;fill-opacity:1;fill-rule:nonzero;stroke:none;stroke-width:2;marker:none;visibility:visible;display:inline;overflow:visible;enable-background:accumulate;font-family:Sans;-inkscape-font-specification:Sans"
     d="M 6,0.5 C 5.0297619,0.5 4.0464114,0.6387482 3.1875,0.9375 2.3285886,1.2362518 1.5226354,1.7047291 1.09375,2.5625 L 1,2.75 1,3 1,8.75 1,9 l 0.09375,0.1875 0.25,0.5 0.09375,0.15625 0.09375,0.125 0.5,0.5 0.125,0.09375 0.15625,0.09375 0.5,0.25 L 3,11 l 0.25,0 5.5,0 0.25,0 0.1875,-0.09375 0.5,-0.25 0.15625,-0.09375 0.125,-0.09375 0.5,-0.5 0.09375,-0.125 0.09375,-0.15625 0.25,-0.5 L 11,9 11,8.75 11,3 11,2.75 10.90625,2.5625 C 10.477365,1.7047291 9.6714114,1.2362518 8.8125,0.9375 7.9535886,0.6387482 6.9702381,0.5 6,0.5 z"
     id="path3854"
     inkscape:connector-curvature="0"
     sodipodi:nodetypes="sssccccccccccccccccccccccccccccsss" />
  <path
     style="color:#000000;fill:#000363;fill-opacity:1;fill-rule:nonzero;stroke:none;stroke-width:2;marker:none;visibility:visible;display:inline;overflow:visible;enable-background:accumulate"
     d="M 6 1.5 C 4.25 1.5 2.5 2 2 3 L 2 8.75 L 2.25 9.25 L 2.75 9.75 L 3.25 10 L 8.75 10 L 9.25 9.75 L 9.75 9.25 L 10 8.75 L 10 3 C 9.5 2 7.75 1.5 6 1.5 z M 4 3 L 4.75 3 L 5 3.25 L 5 5.75 L 4.75 6 L 3.25 6 L 3 5.75 L 3 3.5 L 3.25 3.25 L 4 3 z M 5.5 3 L 6.5 3 L 6.75 3.25 L 6.75 5.75 L 6.5 6 L 5.5 6 L 5.25 5.75 L 5.25 3.25 L 5.5 3 z M 7.25 3 L 8 3 L 8.75 3.25 L 9 3.5 L 9 5.75 L 8.75 6 L 7.25 6 L 7 5.75 L 7 3.25 L 7.25 3 z M 4.375 7.75 C 4.720178 7.75 5 8.029822 5 8.375 C 5 8.720178 4.720178 9 4.375 9 C 4.029822 9 3.75 8.720178 3.75 8.375 C 3.75 8.029822 4.029822 7.75 4.375 7.75 z M 7.625 7.75 C 7.970178 7.75 8.25 8.029822 8.25 8.375 C 8.25 8.720178 7.970178 9 7.625 9 C 7.279822 9 7 8.720178 7 8.375 C 7 8.029822 7.279822 7.75 7.625 7.75 z "
     id="path24879" />
  <rect
     y="-1.7382812e-05"
     x="0"
     height="12.000007"
     width="11.999998"
     id="rect24881"
     style="opacity:0.5;color:#000000;fill:none;stroke:none;stroke-width:2;marker:none;visibility:visible;display:inline;overflow:visible;enable-background:accumulate" />
</svg>
