<?xml version="1.0" encoding="UTF-8" standalone="no"?>
<!-- Created with Inkscape (http://www.inkscape.org/) -->

<svg
   xmlns:dc="http://purl.org/dc/elements/1.1/"
   xmlns:cc="http://creativecommons.org/ns#"
   xmlns:rdf="http://www.w3.org/1999/02/22-rdf-syntax-ns#"
   xmlns:svg="http://www.w3.org/2000/svg"
   xmlns="http://www.w3.org/2000/svg"
   xmlns:sodipodi="http://sodipodi.sourceforge.net/DTD/sodipodi-0.dtd"
   xmlns:inkscape="http://www.inkscape.org/namespaces/inkscape"
   version="1.1"
   width="18"
   height="18"
   id="svg3122"
   inkscape:version="0.48.2 r9819"
   sodipodi:docname="light-18.svg">
  <sodipodi:namedview
     pagecolor="#ffffff"
     bordercolor="#4499ee"
     borderopacity="1"
     objecttolerance="10"
     gridtolerance="10"
     guidetolerance="10"
     inkscape:pageopacity="0"
     inkscape:pageshadow="2"
     inkscape:window-width="1247"
     inkscape:window-height="756"
     id="namedview9815"
     showgrid="false"
     inkscape:snap-bbox="true"
     inkscape:zoom="16"
     inkscape:cx="8.36989"
     inkscape:cy="3.1030754"
     inkscape:window-x="0"
     inkscape:window-y="82"
     inkscape:window-maximized="0"
     inkscape:current-layer="svg3122">
    <inkscape:grid
       type="xygrid"
       id="grid10355" />
  </sodipodi:namedview>
  <defs
     id="defs3124" />
  <metadata
     id="metadata3127">
    <rdf:RDF>
      <cc:Work
         rdf:about="">
        <dc:format>image/svg+xml</dc:format>
        <dc:type
           rdf:resource="http://purl.org/dc/dcmitype/StillImage" />
        <dc:title />
      </cc:Work>
    </rdf:RDF>
  </metadata>
  <path
     style="font-size:medium;font-style:normal;font-variant:normal;font-weight:normal;font-stretch:normal;text-indent:0;text-align:start;text-decoration:none;line-height:normal;letter-spacing:normal;word-spacing:normal;text-transform:none;direction:ltr;block-progression:tb;writing-mode:lr-tb;text-anchor:start;baseline-shift:baseline;color:#000000;fill:#fefef1;fill-opacity:1;fill-rule:nonzero;stroke:none;stroke-width:4;marker:none;visibility:visible;display:inline;overflow:visible;enable-background:accumulate;font-family:Sans;-inkscape-font-specification:Sans"
     d="M 9.5,0.875 C 8.0166667,0.875 6.523925,1.1028141 5.1875,1.6875 3.851075,2.2721859 2.5302035,3.3005376 2.0625,4.9375 2.0151907,5.1207816 1.9940771,5.3108038 2,5.5 l 0,7 c 5.144e-4,0.313643 0.07613,0.626909 0.21875,0.90625 l 0.5,1 c 0.190262,0.373712 0.5012875,0.684738 0.875,0.875 l 1,0.5 C 4.8730913,15.92387 5.1863574,15.999486 5.5,16 l 8,0 c 0.313643,-5.14e-4 0.626909,-0.07613 0.90625,-0.21875 l 1,-0.5 c 0.373712,-0.190262 0.684738,-0.501288 0.875,-0.875 l 0.5,-1 C 16.92387,13.126909 16.999486,12.813643 17,12.5 l 0,-7 C 17.005923,5.3108038 16.984809,5.1207816 16.9375,4.9375 16.469796,3.3005376 15.148925,2.2721859 13.8125,1.6875 12.476075,1.1028141 10.983333,0.875 9.5,0.875 z"
     id="path3755"
     inkscape:connector-curvature="0"
     sodipodi:nodetypes="ssccccccccccccccccss" />
  <path
     style="color:#000000;fill:#000363;fill-opacity:1;fill-rule:nonzero;stroke:none;stroke-width:2;marker:none;visibility:visible;display:inline;overflow:visible;enable-background:accumulate"
     d="m 4,5.5 0,7 0.5,1 1,0.5 8,0 1,-0.5 0.5,-1 0,-7 C 14,2 5,2 4,5.5 z M 7.5,5 8,5.5 8,8.5 7.5,9 5.5,9 5,8.5 5,6 5.5,5.5 6.5,5 z M 11,5.5 11.5,5 l 1,0 1,0.5 L 14,6 14,8.5 13.5,9 11.5,9 11,8.5 z m -3.75,5 C 7.66421,10.5 8,10.835786 8,11.25 8,11.664214 7.66421,12 7.25,12 6.83579,12 6.5,11.664214 6.5,11.25 6.5,10.835786 6.83579,10.5 7.25,10.5 z m 4.5,0 c 0.41421,0 0.75,0.335786 0.75,0.75 C 12.5,11.664214 12.16421,12 11.75,12 11.33579,12 11,11.664214 11,11.25 11,10.835786 11.33579,10.5 11.75,10.5 z"
     id="path24869"
     inkscape:connector-curvature="0"
     sodipodi:nodetypes="cccccccccccccccccccccccccccccssssssssss" />
  <rect
     style="opacity:0.5;color:#000000;fill:none;stroke:none;stroke-width:2;marker:none;visibility:visible;display:inline;overflow:visible;enable-background:accumulate"
     id="rect24871"
     width="18.000017"
     height="18.000031"
     x="-1.2888184e-05"
     y="-1.7382812e-05" />
  <rect
     style="color:#000000;fill:#ffffff;fill-opacity:1;fill-rule:evenodd;stroke:none;stroke-width:1px;marker:none;visibility:visible;display:inline;overflow:visible;enable-background:accumulate"
     id="rect2985"
     width="2"
     height="4"
     x="8.5"
     y="5"
     ry="0.5"
     rx="0.5" />
</svg>
