<?xml version="1.0" encoding="UTF-8" standalone="no"?>
<!-- Created with Inkscape (http://www.inkscape.org/) -->

<svg
   xmlns:dc="http://purl.org/dc/elements/1.1/"
   xmlns:cc="http://creativecommons.org/ns#"
   xmlns:rdf="http://www.w3.org/1999/02/22-rdf-syntax-ns#"
   xmlns:svg="http://www.w3.org/2000/svg"
   xmlns="http://www.w3.org/2000/svg"
   xmlns:sodipodi="http://sodipodi.sourceforge.net/DTD/sodipodi-0.dtd"
   xmlns:inkscape="http://www.inkscape.org/namespaces/inkscape"
   version="1.1"
   width="24"
   height="12"
   id="svg3122"
   inkscape:version="0.48.2 r9819"
   sodipodi:docname="london-overground.london-underground-12.svg">
  <sodipodi:namedview
     pagecolor="#ffffff"
     bordercolor="#666666"
     borderopacity="1"
     objecttolerance="10"
     gridtolerance="10"
     guidetolerance="10"
     inkscape:pageopacity="0"
     inkscape:pageshadow="2"
     inkscape:window-width="1280"
     inkscape:window-height="752"
     id="namedview19"
     showgrid="true"
     inkscape:snap-bbox="true"
     fit-margin-top="0"
     fit-margin-left="0"
     fit-margin-right="0"
     fit-margin-bottom="0"
     inkscape:zoom="21.458333"
     inkscape:cx="15.704854"
     inkscape:cy="4.5436702"
     inkscape:window-x="0"
     inkscape:window-y="0"
     inkscape:window-maximized="1"
     inkscape:current-layer="svg3122">
    <inkscape:grid
       type="xygrid"
       id="grid2996"
       empspacing="5"
       visible="true"
       enabled="true"
       snapvisiblegridlinesonly="true"
       originx="0px"
       originy="-1.8691406e-05px" />
  </sodipodi:namedview>
  <defs
     id="defs3124" />
  <metadata
     id="metadata3127">
    <rdf:RDF>
      <cc:Work
         rdf:about="">
        <dc:format>image/svg+xml</dc:format>
        <dc:type
           rdf:resource="http://purl.org/dc/dcmitype/StillImage" />
        <dc:title />
      </cc:Work>
    </rdf:RDF>
  </metadata>
  <path
     style="color:#000000;fill:#fefef1;fill-opacity:1;fill-rule:nonzero;stroke:none;stroke-width:1.33333324999999991;marker:none;visibility:visible;display:inline;overflow:visible;enable-background:accumulate"
     d="M 17.65625 1 A 5.00001 5.00001 0 0 0 13.4375 4 L 13 4 C 12.446 4 12 4.446 12 5 L 12 7 C 12 7.554 12.446 8 13 8 L 13.40625 8 A 5.00001 5.00001 0 0 0 22.5625 8 L 23 8 C 23.554 8 24 7.554 24 7 L 24 5 C 24 4.446 23.554 4 23 4 L 22.59375 4 A 5.00001 5.00001 0 0 0 17.65625 1 z "
     id="rect3817-1-9" />
  <rect
     style="color:#000000;fill:#ffffff;fill-opacity:0;fill-rule:nonzero;stroke:none;stroke-width:0.99999994;marker:none;visibility:visible;display:inline;overflow:visible;enable-background:accumulate"
     id="rect3901"
     y="1.3085937e-06"
     x="12"
     height="12"
     width="12" />
  <path
     style="color:#000000;fill:#000363;fill-opacity:1;fill-rule:nonzero;stroke:none;stroke-width:0.74999994000000003;marker:none;visibility:visible;display:inline;overflow:visible;enable-background:accumulate"
     d="M 17.71875 2 A 4 4 0 0 0 14.125 5 L 13.25 5 C 13.1115 5 13 5.1115 13 5.25 L 13 6.75 C 13 6.8885 13.1115 7 13.25 7 L 14.15625 7 A 4 4 0 0 0 21.875 7 L 22.75 7 C 22.8885 7 23 6.8885 23 6.75 L 23 5.25 C 23 5.1115 22.8885 5 22.75 5 L 21.875 5 A 4 4 0 0 0 17.71875 2 z M 17.8125 3.5 A 2.500035 2.500035 0 0 1 20.28125 5 L 15.71875 5 A 2.500035 2.500035 0 0 1 17.8125 3.5 z M 15.71875 7 L 20.28125 7 A 2.500035 2.500035 0 0 1 15.71875 7 z "
     id="path3903" />
  <path
     id="path30089"
     d="M 5.65625,1 A 5.00001,5.00001 0 0 0 1.4375,4 L 1,4 C 0.446,4 0,4.446 0,5 L 0,7 C 0,7.554 0.446,8 1,8 L 1.40625,8 A 5.00001,5.00001 0 0 0 10.5625,8 L 11,8 c 0.554,0 1,-0.446 1,-1 L 12,5 C 12,4.446 11.554,4 11,4 L 10.59375,4 A 5.00001,5.00001 0 0 0 5.65625,1 z"
     style="color:#000000;fill:#fefef1;fill-opacity:1;fill-rule:nonzero;stroke:none;stroke-width:1.33333325;marker:none;visibility:visible;display:inline;overflow:visible;enable-background:accumulate"
     inkscape:connector-curvature="0" />
  <rect
     width="12"
     height="12"
     x="0"
     y="1.3085937e-06"
     id="rect30091"
     style="color:#000000;fill:#ffffff;fill-opacity:0;fill-rule:nonzero;stroke:none;stroke-width:0.99999994;marker:none;visibility:visible;display:inline;overflow:visible;enable-background:accumulate" />
  <path
     id="path30093"
     d="M 5.71875,2 A 4,4 0 0 0 2.125,5 L 1.25,5 C 1.1115,5 1,5.1115 1,5.25 l 0,1.5 C 1,6.8885 1.1115,7 1.25,7 L 2.15625,7 A 4,4 0 0 0 9.875,7 L 10.75,7 C 10.8885,7 11,6.8885 11,6.75 l 0,-1.5 C 11,5.1115 10.8885,5 10.75,5 L 9.875,5 A 4,4 0 0 0 5.71875,2 z M 5.8125,3.5 A 2.500035,2.500035 0 0 1 8.28125,5 L 3.71875,5 A 2.500035,2.500035 0 0 1 5.8125,3.5 z M 3.71875,7 8.28125,7 a 2.500035,2.500035 0 0 1 -4.5625,0 z"
     style="color:#000000;fill:#000363;fill-opacity:1;fill-rule:nonzero;stroke:none;stroke-width:0.74999994;marker:none;visibility:visible;display:inline;overflow:visible;enable-background:accumulate"
     inkscape:connector-curvature="0" />
</svg>
