<?xml version="1.0" encoding="UTF-8" standalone="no"?>
<!-- Created with Inkscape (http://www.inkscape.org/) -->

<svg
   xmlns:dc="http://purl.org/dc/elements/1.1/"
   xmlns:cc="http://creativecommons.org/ns#"
   xmlns:rdf="http://www.w3.org/1999/02/22-rdf-syntax-ns#"
   xmlns:svg="http://www.w3.org/2000/svg"
   xmlns="http://www.w3.org/2000/svg"
   xmlns:sodipodi="http://sodipodi.sourceforge.net/DTD/sodipodi-0.dtd"
   xmlns:inkscape="http://www.inkscape.org/namespaces/inkscape"
   version="1.1"
   width="54"
   height="18"
   id="svg3122"
   inkscape:version="0.48.2 r9819"
   sodipodi:docname="london-overground.london-underground.national-rail-18.svg">
  <sodipodi:namedview
     pagecolor="#ffffff"
     bordercolor="#666666"
     borderopacity="1"
     objecttolerance="10"
     gridtolerance="10"
     guidetolerance="10"
     inkscape:pageopacity="0"
     inkscape:pageshadow="2"
     inkscape:window-width="1280"
     inkscape:window-height="752"
     id="namedview27245"
     showgrid="false"
     inkscape:zoom="13.037037"
     inkscape:cx="26.309659"
     inkscape:cy="9"
     inkscape:window-x="0"
     inkscape:window-y="0"
     inkscape:window-maximized="1"
     inkscape:current-layer="svg3122" />
  <defs
     id="defs3124" />
  <metadata
     id="metadata3127">
    <rdf:RDF>
      <cc:Work
         rdf:about="">
        <dc:format>image/svg+xml</dc:format>
        <dc:type
           rdf:resource="http://purl.org/dc/dcmitype/StillImage" />
        <dc:title />
      </cc:Work>
    </rdf:RDF>
  </metadata>
  <path
     style="color:#000000;fill:#fefef1;fill-opacity:1;fill-rule:nonzero;stroke:none;stroke-width:0.99999994000000003;marker:none;visibility:visible;display:inline;overflow:visible;enable-background:accumulate"
     d="M 27.21875 1 A 8 8 0 0 0 19.5625 6.03125 C 18.664203 6.2281959 18 7.0408875 18 8 L 18 10 C 18 10.9695 18.680742 11.782867 19.59375 11.96875 A 8 8 0 0 0 34.4375 11.96875 C 35.335797 11.771804 36 10.959112 36 10 L 36 8 C 36 7.0305 35.319258 6.2171328 34.40625 6.03125 A 8 8 0 0 0 27.21875 1 z "
     id="path3833" />
  <path
     style="color:#000000;fill:#000363;fill-opacity:1;fill-rule:nonzero;stroke:none;stroke-width:0.99999994000000003;marker:none;visibility:visible;display:inline;overflow:visible;enable-background:accumulate"
     d="M 27 3 C 24.02438 3 21.566728 5.1585941 21.09375 8 L 20.5 8 C 20.223 8 20 8.223 20 8.5 L 20 9.5 C 20 9.777 20.223 10 20.5 10 L 21.09375 10 C 21.566728 12.841406 24.02438 15 27 15 C 29.97562 15 32.433272 12.841406 32.90625 10 L 33.5 10 C 33.777 10 34 9.777 34 9.5 L 34 8.5 C 34 8.223 33.777 8 33.5 8 L 32.90625 8 C 32.433272 5.1585941 29.97562 3 27 3 z M 27 5.5 C 28.587819 5.5 29.915501 6.5510094 30.34375 8 L 23.65625 8 C 24.084499 6.5510094 25.412181 5.5 27 5.5 z M 23.65625 10 L 30.34375 10 C 29.915501 11.448991 28.587819 12.5 27 12.5 C 25.412181 12.5 24.084499 11.448991 23.65625 10 z "
     id="path3808" />
  <rect
     style="color:#000000;fill:#ffffff;fill-opacity:0;fill-rule:nonzero;stroke:none;stroke-width:0.99999994;marker:none;visibility:visible;display:inline;overflow:visible;enable-background:accumulate"
     id="rect3810"
     y="-1.7382812e-05"
     x="18"
     height="18"
     width="18" />
  <rect
     style="color:#000000;fill:#fefef1;fill-opacity:1;fill-rule:nonzero;stroke:none;stroke-width:1.33333324999999991;marker:none;visibility:visible;display:inline;overflow:visible;enable-background:accumulate"
     id="rect3806-6"
     y="1.9999826"
     x="36"
     ry="2"
     rx="2"
     height="13.999993"
     width="18" />
  <rect
     style="color:#000000;fill:#ffffff;fill-opacity:0;fill-rule:nonzero;stroke:none;stroke-width:0.99999994;marker:none;visibility:visible;display:inline;overflow:visible;enable-background:accumulate"
     id="rect3787"
     y="-1.7382812e-05"
     x="36"
     height="18"
     width="18" />
  <path
     style="color:#000000;fill:#ff5f51;fill-opacity:1;fill-rule:nonzero;stroke:none;stroke-width:1.33333324999999991;marker:none;visibility:visible;display:inline;overflow:visible;enable-background:accumulate"
     d="M 39 4 C 38.446 4 38 4.446 38 5 L 38 6.75 L 45.03125 6.75 L 41.5 4 L 39 4 z M 44 4 L 47.53125 6.75 L 52 6.75 L 52 5 C 52 4.446 51.554 4 51 4 L 44 4 z M 38 8 L 38 10 L 42.25 10 L 45.25 8 L 38 8 z M 47.75 8 L 44.75 10 L 52 10 L 52 8 L 47.75 8 z M 38 11.25 L 38 13 C 38 13.554 38.446 14 39 14 L 46 14 L 42.46875 11.25 L 38 11.25 z M 44.96875 11.25 L 48.5 14 L 51 14 C 51.554 14 52 13.554 52 13 L 52 11.25 L 44.96875 11.25 z "
     id="rect3025-0" />
  <path
     id="path27771"
     d="M 9.21875,1 A 8,8 0 0 0 1.5625,6.03125 C 0.664203,6.2281959 0,7.0408875 0,8 l 0,2 c 0,0.9695 0.680742,1.782867 1.59375,1.96875 a 8,8 0 0 0 14.84375,0 C 17.335797,11.771804 18,10.959112 18,10 L 18,8 C 18,7.0305 17.319258,6.2171328 16.40625,6.03125 A 8,8 0 0 0 9.21875,1 z"
     style="color:#000000;fill:#fefef1;fill-opacity:1;fill-rule:nonzero;stroke:none;stroke-width:0.99999994;marker:none;visibility:visible;display:inline;overflow:visible;enable-background:accumulate"
     inkscape:connector-curvature="0" />
  <path
     id="path27773"
     d="M 9,3 C 6.02438,3 3.566728,5.1585941 3.09375,8 L 2.5,8 C 2.223,8 2,8.223 2,8.5 l 0,1 C 2,9.777 2.223,10 2.5,10 l 0.59375,0 C 3.566728,12.841406 6.02438,15 9,15 c 2.97562,0 5.433272,-2.158594 5.90625,-5 L 15.5,10 C 15.777,10 16,9.777 16,9.5 l 0,-1 C 16,8.223 15.777,8 15.5,8 L 14.90625,8 C 14.433272,5.1585941 11.97562,3 9,3 z m 0,2.5 c 1.587819,0 2.915501,1.0510094 3.34375,2.5 L 5.65625,8 C 6.084499,6.5510094 7.412181,5.5 9,5.5 z m -3.34375,4.5 6.6875,0 C 11.915501,11.448991 10.587819,12.5 9,12.5 7.412181,12.5 6.084499,11.448991 5.65625,10 z"
     style="color:#000000;fill:#000363;fill-opacity:1;fill-rule:nonzero;stroke:none;stroke-width:0.99999994;marker:none;visibility:visible;display:inline;overflow:visible;enable-background:accumulate"
     inkscape:connector-curvature="0" />
  <rect
     width="18"
     height="18"
     x="0"
     y="-1.7382812e-05"
     id="rect27775"
     style="color:#000000;fill:#ffffff;fill-opacity:0;fill-rule:nonzero;stroke:none;stroke-width:0.99999994;marker:none;visibility:visible;display:inline;overflow:visible;enable-background:accumulate" />
</svg>
