<?xml version="1.0" encoding="UTF-8" standalone="no"?>
<!-- Created with Inkscape (http://www.inkscape.org/) -->

<svg
   xmlns:dc="http://purl.org/dc/elements/1.1/"
   xmlns:cc="http://creativecommons.org/ns#"
   xmlns:rdf="http://www.w3.org/1999/02/22-rdf-syntax-ns#"
   xmlns:svg="http://www.w3.org/2000/svg"
   xmlns="http://www.w3.org/2000/svg"
   xmlns:sodipodi="http://sodipodi.sourceforge.net/DTD/sodipodi-0.dtd"
   xmlns:inkscape="http://www.inkscape.org/namespaces/inkscape"
   version="1.1"
   width="18"
   height="18"
   id="svg3122"
   inkscape:version="0.48.2 r9819"
   sodipodi:docname="national-rail-18.svg">
  <sodipodi:namedview
     pagecolor="#ffffff"
     bordercolor="#666666"
     borderopacity="1"
     objecttolerance="10"
     gridtolerance="10"
     guidetolerance="10"
     inkscape:pageopacity="0"
     inkscape:pageshadow="2"
     inkscape:window-width="1011"
     inkscape:window-height="688"
     id="namedview8810"
     showgrid="false"
     inkscape:zoom="13.111111"
     inkscape:cx="7.6271186"
     inkscape:cy="5.9491525"
     inkscape:window-x="0"
     inkscape:window-y="0"
     inkscape:window-maximized="0"
     inkscape:current-layer="svg3122" />
  <defs
     id="defs3124" />
  <metadata
     id="metadata3127">
    <rdf:RDF>
      <cc:Work
         rdf:about="">
        <dc:format>image/svg+xml</dc:format>
        <dc:type
           rdf:resource="http://purl.org/dc/dcmitype/StillImage" />
        <dc:title />
      </cc:Work>
    </rdf:RDF>
  </metadata>
  <rect
     style="color:#000000;fill:#fefef1;fill-opacity:1;fill-rule:nonzero;stroke:none;stroke-width:1.33333324999999991;marker:none;visibility:visible;display:inline;overflow:visible;enable-background:accumulate"
     id="rect3806-6"
     y="1.9999826"
     x="0"
     ry="2"
     rx="2"
     height="13.999993"
     width="18" />
  <rect
     style="color:#000000;fill:#ffffff;fill-opacity:0;fill-rule:nonzero;stroke:none;stroke-width:0.99999994;marker:none;visibility:visible;display:inline;overflow:visible;enable-background:accumulate"
     id="rect3787"
     y="-1.7382812e-05"
     x="0"
     height="18"
     width="18" />
  <path
     style="color:#000000;fill:#ff5f51;fill-opacity:1;fill-rule:nonzero;stroke:none;stroke-width:1.33333324999999991;marker:none;visibility:visible;display:inline;overflow:visible;enable-background:accumulate"
     d="M 3 4 C 2.446 4 2 4.446 2 5 L 2 6.75 L 9.03125 6.75 L 5.5 4 L 3 4 z M 8 4 L 11.53125 6.75 L 16 6.75 L 16 5 C 16 4.446 15.554 4 15 4 L 8 4 z M 2 8 L 2 10 L 6.25 10 L 9.25 8 L 2 8 z M 11.75 8 L 8.75 10 L 16 10 L 16 8 L 11.75 8 z M 2 11.25 L 2 13 C 2 13.554 2.446 14 3 14 L 10 14 L 6.46875 11.25 L 2 11.25 z M 8.96875 11.25 L 12.5 14 L 15 14 C 15.554 14 16 13.554 16 13 L 16 11.25 L 8.96875 11.25 z "
     id="rect3025-0" />
</svg>
