<?xml version="1.0" encoding="UTF-8" standalone="no"?>
<!-- Created with Inkscape (http://www.inkscape.org/) -->

<svg
   xmlns:dc="http://purl.org/dc/elements/1.1/"
   xmlns:cc="http://creativecommons.org/ns#"
   xmlns:rdf="http://www.w3.org/1999/02/22-rdf-syntax-ns#"
   xmlns:svg="http://www.w3.org/2000/svg"
   xmlns="http://www.w3.org/2000/svg"
   xmlns:sodipodi="http://sodipodi.sourceforge.net/DTD/sodipodi-0.dtd"
   xmlns:inkscape="http://www.inkscape.org/namespaces/inkscape"
   version="1.1"
   width="12"
   height="12"
   id="svg3122"
   inkscape:version="0.48.2 r9819"
   sodipodi:docname="national-rail-12.svg">
  <sodipodi:namedview
     pagecolor="#ffffff"
     bordercolor="#666666"
     borderopacity="1"
     objecttolerance="10"
     gridtolerance="10"
     guidetolerance="10"
     inkscape:pageopacity="0"
     inkscape:pageshadow="2"
     inkscape:window-width="960"
     inkscape:window-height="756"
     id="namedview12"
     showgrid="false"
     inkscape:snap-bbox="true"
     inkscape:zoom="22.627417"
     inkscape:cx="4.5201098"
     inkscape:cy="7.0114215"
     inkscape:window-x="0"
     inkscape:window-y="27"
     inkscape:window-maximized="0"
     inkscape:current-layer="svg3122">
    <inkscape:grid
       type="xygrid"
       id="grid3043" />
  </sodipodi:namedview>
  <defs
     id="defs3124" />
  <metadata
     id="metadata3127">
    <rdf:RDF>
      <cc:Work
         rdf:about="">
        <dc:format>image/svg+xml</dc:format>
        <dc:type
           rdf:resource="http://purl.org/dc/dcmitype/StillImage" />
        <dc:title />
      </cc:Work>
    </rdf:RDF>
  </metadata>
  <rect
     style="color:#000000;fill:#fefef1;fill-opacity:1;fill-rule:nonzero;stroke:none;stroke-width:1.33333324999999991;marker:none;visibility:visible;display:inline;overflow:visible;enable-background:accumulate"
     id="rect3806"
     y="0.9999826"
     x="0"
     ry="2"
     rx="2"
     height="9.9999971"
     width="12" />
  <rect
     style="color:#000000;fill:#ffffff;fill-opacity:0;fill-rule:nonzero;stroke:none;stroke-width:0.99999994;marker:none;visibility:visible;display:inline;overflow:visible;enable-background:accumulate"
     id="rect3765"
     y="-1.7382812e-05"
     x="0"
     height="12"
     width="12" />
  <path
     style="color:#000000;fill:#ff5f51;fill-opacity:1;fill-rule:nonzero;stroke:none;stroke-width:1.33333324999999991;marker:none;visibility:visible;display:inline;overflow:visible;enable-background:accumulate"
     d="M 2 2 C 1.446 2 1 2.446 1 3 L 1 4 L 6.65625 4 L 3.34375 2 L 2 2 z M 5.34375 2 L 8.65625 4 L 11 4 L 11 3 C 11 2.446 10.554 2 10 2 L 5.34375 2 z M 1 5 L 1 7 L 3.34375 7 L 6.65625 5 L 1 5 z M 8.65625 5 L 5.34375 7 L 11 7 L 11 5 L 8.65625 5 z M 1 8 L 1 9 C 1 9.554 1.446 10 2 10 L 6.65625 10 L 3.34375 8 L 1 8 z M 5.34375 8 L 8.65625 10 L 10 10 C 10.554 10 11 9.554 11 9 L 11 8 L 5.34375 8 z "
     id="rect3025" />
</svg>
