<?xml version="1.0" encoding="UTF-8" standalone="no"?>
<!-- Created with Inkscape (http://www.inkscape.org/) -->

<svg
   xmlns:dc="http://purl.org/dc/elements/1.1/"
   xmlns:cc="http://creativecommons.org/ns#"
   xmlns:rdf="http://www.w3.org/1999/02/22-rdf-syntax-ns#"
   xmlns:svg="http://www.w3.org/2000/svg"
   xmlns="http://www.w3.org/2000/svg"
   xmlns:sodipodi="http://sodipodi.sourceforge.net/DTD/sodipodi-0.dtd"
   xmlns:inkscape="http://www.inkscape.org/namespaces/inkscape"
   version="1.1"
   width="18"
   height="18"
   id="svg3122"
   inkscape:version="0.48.2 r9819"
   sodipodi:docname="rail-18.svg">
  <sodipodi:namedview
     pagecolor="#ffffff"
     bordercolor="#4499ee"
     borderopacity="1"
     objecttolerance="10"
     gridtolerance="10"
     guidetolerance="10"
     inkscape:pageopacity="0"
     inkscape:pageshadow="2"
     inkscape:window-width="1052"
     inkscape:window-height="673"
     id="namedview5706"
     showgrid="false"
     borderlayer="true"
     inkscape:zoom="22.627417"
     inkscape:cx="10.281722"
     inkscape:cy="7.2631142"
     inkscape:window-x="0"
     inkscape:window-y="27"
     inkscape:window-maximized="0"
     inkscape:current-layer="svg3122"
     inkscape:snap-bbox="true"
     inkscape:object-paths="false">
    <inkscape:grid
       type="xygrid"
       id="grid5708"
       empspacing="5"
       visible="true"
       enabled="true"
       snapvisiblegridlinesonly="true" />
  </sodipodi:namedview>
  <defs
     id="defs3124" />
  <metadata
     id="metadata3127">
    <rdf:RDF>
      <cc:Work
         rdf:about="">
        <dc:format>image/svg+xml</dc:format>
        <dc:type
           rdf:resource="http://purl.org/dc/dcmitype/StillImage" />
        <dc:title />
      </cc:Work>
    </rdf:RDF>
  </metadata>
  <path
     style="font-size:medium;font-style:normal;font-variant:normal;font-weight:normal;font-stretch:normal;text-indent:0;text-align:start;text-decoration:none;line-height:normal;letter-spacing:normal;word-spacing:normal;text-transform:none;direction:ltr;block-progression:tb;writing-mode:lr-tb;text-anchor:start;baseline-shift:baseline;color:#000000;fill:#fefef1;fill-opacity:1;fill-rule:nonzero;stroke:none;stroke-width:4;marker:none;visibility:visible;display:inline;overflow:visible;enable-background:accumulate;font-family:Sans;-inkscape-font-specification:Sans"
     d="M 9,0.09375 C 7.2583404,0.09375 5.7694014,0.56655931 4.8125,1.5 3.8555986,2.4334407 3.5825018,3.3662318 3.21875,4.09375 3.0761303,4.3730913 3.0005144,4.6863574 3,5 l 0,5 c -3.268e-4,0.168411 0.020728,0.336852 0.0625,0.5 l 0.25,1 c 0.068844,0.248458 0.1862898,0.48335 0.34375,0.6875 L 3.9375,12.5625 2.625,13.78125 C 2.2275557,14.15752 1.9955583,14.702714 2,15.25 L 2,16 c 1.047e-4,1.047169 0.9528311,1.999895 2,2 l 2.25,0 c 0.8195413,-0.0059 1.6060473,-0.569575 1.875,-1.34375 L 8.71875,15 9.28125,15 9.875,16.65625 C 10.143953,17.430425 10.930459,17.994088 11.75,18 L 14,18 c 1.047169,-1.05e-4 1.999895,-0.952831 2,-2 l 0,-0.75 c 0.0044,-0.547286 -0.227556,-1.09248 -0.625,-1.46875 l -1.3125,-1.21875 0.28125,-0.375 C 14.50121,11.98335 14.618656,11.748458 14.6875,11.5 l 0.25,-1 C 14.979272,10.336852 15.000327,10.168411 15,10 L 15,5 C 14.999486,4.6863574 14.92387,4.3730913 14.78125,4.09375 14.417498,3.3662313 14.144401,2.4334405 13.1875,1.5 12.230599,0.56655952 10.741659,0.09375 9,0.09375 z"
     id="path3126"
     inkscape:connector-curvature="0"
     sodipodi:nodetypes="ssccccccccccccccccccccccccccccss" />
  <rect
     style="color:#000000;fill:#ffffff;fill-opacity:0;stroke:none;stroke-width:2;marker:none;visibility:visible;display:inline;overflow:visible;enable-background:accumulate"
     id="rect24871"
     y="-1.7382812e-05"
     x="-2.8881836e-06"
     height="18.000031"
     width="18.000017" />
  <path
     style="color:#000000;fill:#000363;fill-opacity:1;fill-rule:nonzero;stroke:none;stroke-width:2;marker:none;visibility:visible;display:inline;overflow:visible;enable-background:accumulate"
     d="M 9 2.09375 C 6.083332 2.09375 5.8333333 3.3333 5 5 L 5 10 L 5.25 11 L 6 12 L 7 12.75 L 8 13 L 10 13 L 11 12.75 L 12 12 L 12.75 11 L 13 10 L 13 5 C 12.166667 3.3333 11.916667 2.09375 9 2.09375 z M 8 4 L 10 4 L 11.5 4.5 L 12 6 L 11.25 6.75 L 10 7 L 8 7 L 6.75 6.75 L 6 6 L 6.5 4.5 L 8 4 z M 9 8.15625 C 9.4733862 8.15625 9.84375 8.5266138 9.84375 9 C 9.84375 9.4733862 9.4733862 9.84375 9 9.84375 C 8.5266138 9.84375 8.15625 9.4733862 8.15625 9 C 8.15625 8.5266138 8.5266138 8.15625 9 8.15625 z M 5.875 13.5 L 4 15.25 L 4 16 L 6.25 16 L 7 13.875 L 7 13.5 L 5.875 13.5 z M 11 13.5 L 11 13.875 L 11.75 16 L 14 16 L 14 15.25 L 12.125 13.5 L 11 13.5 z "
     id="path24879" />
</svg>
