<?xml version="1.0" encoding="UTF-8" standalone="no"?>
<!-- Created with Inkscape (http://www.inkscape.org/) -->

<svg
   xmlns:dc="http://purl.org/dc/elements/1.1/"
   xmlns:cc="http://creativecommons.org/ns#"
   xmlns:rdf="http://www.w3.org/1999/02/22-rdf-syntax-ns#"
   xmlns:svg="http://www.w3.org/2000/svg"
   xmlns="http://www.w3.org/2000/svg"
   xmlns:sodipodi="http://sodipodi.sourceforge.net/DTD/sodipodi-0.dtd"
   xmlns:inkscape="http://www.inkscape.org/namespaces/inkscape"
   version="1.1"
   width="12"
   height="12"
   id="svg3122"
   inkscape:version="0.48.2 r9819"
   sodipodi:docname="washington-metro-12.svg">
  <sodipodi:namedview
     pagecolor="#ffffff"
     bordercolor="#4499ee"
     borderopacity="1"
     objecttolerance="10"
     gridtolerance="10"
     guidetolerance="10"
     inkscape:pageopacity="0"
     inkscape:pageshadow="2"
     inkscape:window-width="1280"
     inkscape:window-height="752"
     id="namedview3085"
     showgrid="false"
     inkscape:zoom="22.627417"
     inkscape:cx="8.9967512"
     inkscape:cy="3.5676122"
     inkscape:window-x="0"
     inkscape:window-y="0"
     inkscape:window-maximized="1"
     inkscape:current-layer="layer1">
    <inkscape:grid
       type="xygrid"
       id="grid3087" />
  </sodipodi:namedview>
  <defs
     id="defs3124" />
  <metadata
     id="metadata3127">
    <rdf:RDF>
      <cc:Work
         rdf:about="">
        <dc:format>image/svg+xml</dc:format>
        <dc:type
           rdf:resource="http://purl.org/dc/dcmitype/StillImage" />
        <dc:title />
      </cc:Work>
    </rdf:RDF>
  </metadata>
  <g
     transform="translate(0,-1040.3622)"
     id="layer1">
    <rect
       width="12"
       height="11.999997"
       rx="0"
       ry="0"
       x="0"
       y="1040.3622"
       id="rect4241"
       style="color:#000000;fill:#ffffff;fill-opacity:0;fill-rule:evenodd;stroke:none;stroke-width:1px;marker:none;visibility:visible;display:inline;overflow:visible;enable-background:accumulate" />
    <path
       style="font-size:medium;font-style:normal;font-variant:normal;font-weight:normal;font-stretch:normal;text-indent:0;text-align:start;text-decoration:none;line-height:normal;letter-spacing:normal;word-spacing:normal;text-transform:none;direction:ltr;block-progression:tb;writing-mode:lr-tb;text-anchor:start;baseline-shift:baseline;color:#000000;fill:#fefef1;fill-opacity:1;fill-rule:evenodd;stroke:none;stroke-width:2;marker:none;visibility:visible;display:inline;overflow:visible;enable-background:accumulate;font-family:Sans;-inkscape-font-specification:Sans"
       d="m 3.5,1041.375 c -1.3677028,0 -2.5,1.1323 -2.5,2.5 l 0,5 c 0,1.3677 1.1322972,2.5 2.5,2.5 l 5,0 c 1.3677028,0 2.5,-1.1323 2.5,-2.5 l 0,-5 c 0,-1.3677 -1.1322972,-2.5 -2.5,-2.5 z"
       id="rect3426"
       inkscape:connector-curvature="0"
       sodipodi:nodetypes="sssssssss" />
    <path
       style="color:#000000;fill:#000363;fill-opacity:1;fill-rule:evenodd;stroke:none;stroke-width:1px;marker:none;visibility:visible;display:inline;overflow:visible;enable-background:accumulate"
       d="m 3,1042.3622 c -0.5540096,0 -1,0.446 -1,1 l 0,6 c 0,0.554 0.4459904,1 1,1 l 6,0 c 0.5540096,0 1,-0.446 1,-1 l 0,-6 c 0,-0.554 -0.4459904,-1 -1,-1 l -6,0 z m 0,1 1.875,0 1.125,4.0938 1.125,-4.0938 1.875,0 0,6 -1.15625,0 0,-4.7187 -1.25,4.7187 -1.1875,0 -1.25,-4.7187 0,4.7187 -1.15625,0 0,-6 z"
       id="rect3416"
       inkscape:connector-curvature="0" />
  </g>
</svg>
